# xmcd
#
# Track frame offsets:
#	150
#	12939
#	26704
#	42531
#	55738
#	70255
#	81930
#	95054
#	108429
#	122333
#	135067
#	146296
#	158751
#	170287
#	185138
#	199934
#	214312
#	227101
#	237968
#	251622
#	264913
#	279792
#	292164
#	303727
#	315876
#
# Disc length: 4374 seconds
#
# Revision: 4
# Processed by: cddbd v1.5.2PL0 Copyright (c) Steve Scherf et al.
# Submitted via: EZCDAudioConverter 7.0.9.1
#
DISCID=61111419
DTITLE=Piano-Guitar Duets - Triomphes du Blues 11, Piano-Guitar Duets
DYEAR=2001
DGENRE=Blues
TTITLE0=Leroy Carr and Scrapper Blackwell - How long has that evening train been
TTITLE0=gone - 1932
TTITLE1=Leroy Carr and Scrapper Blackwell - Midnight hour blues - 1932
TTITLE2=Leroy Carr and Scrapper Blackwell - Blues before sunrise - 1934
TTITLE3=Leroy Carr and Scrapper Blackwell - When the sun goes down - 1935
TTITLE4=Leroy Carr and Scrapper Blackwell - Going back home - 1935
TTITLE5=Leroy Carr and Scrapper Blackwell - Stormy night blues - 1934
TTITLE6=Leroy Carr and Scrapper Blackwell - I believe i'll make a change - 1934
TTITLE7=Scrapper Blackwell and Dot Rice - My old pal - 1935
TTITLE8=Curtis Jones and Willie B. James - Lonesome bedroom blues - 1937
TTITLE9=Tampa Red and Big Maceo - Worried life blues - 1941
TTITLE10=Big Maceo and Tampa Red - I'm so worried - 1945
TTITLE11=Tampa Red and Big Maceo - Mercy mama blues - 1945
TTITLE12=Walter Davis and Henry Townsend - Ashes in my whiskey - 1935
TTITLE13=Walter Davis and Robert Lee McCoy - West coast blues - 1937
TTITLE14=Walter Davis and Leonard Caston - Oh! me, oh! my, blues - 1947
TTITLE15=Blind Blake and Charlie Spand - Hasting street - 1929
TTITLE16=Georgia Tom Dorsey and Tampa Red - Come on mama - 1929
TTITLE17=Big Bill Bronzy and Memphis Slim - All by myself - 1941
TTITLE18=Peetie Wheaststraw and Lonnie Johnson - What more can a man do? - 1938
TTITLE19=Lonnie Johnson and Joshua Altheimer - She's my Mary - 1939
TTITLE20=Lonnie Johnson and Blind John Davis - Flyright baby - 1942
TTITLE21=Johnny Temple and Horace Malcolm - Big woman blues - 1941
TTITLE22=Johnny Temple and Horace Malcolm - Sundown blues - 1941
TTITLE23=Champion Jack Dupree and Jesse Ellory - Shady Lane - 1941
TTITLE24=Champion Jack Dupree and Jesse Ellory - Morning tea - 1941
EXTD=
EXTT0=
EXTT1=
EXTT2=
EXTT3=
EXTT4=
EXTT5=
EXTT6=
EXTT7=
EXTT8=
EXTT9=
EXTT10=
EXTT11=
EXTT12=
EXTT13=
EXTT14=
EXTT15=
EXTT16=
EXTT17=
EXTT18=
EXTT19=
EXTT20=
EXTT21=
EXTT22=
EXTT23=
EXTT24=
PLAYORDER=
